<svg xmlns="http://www.w3.org/2000/svg" version="1.10" style="display: block;" viewBox="0 0 2048 2048" width="1024" height="1024" preserveAspectRatio="none">
<path transform="translate(0,0)" fill="transparent" d="M 0 0 L 2048 0 L 2048 2048 L 0 2048 L 0 0 z"/>
<path transform="translate(0,0)" fill="rgb(22,21,21)" d="M 1017.05 421.14 C 1018.60 420.99 1020.15 420.88 1021.70 420.80 C 1034.34 420.23 1044.46 426.24 1045.78 439.31 C 1047.38 455.07 1046.75 471.76 1046.75 487.62 L 1046.49 582.25 L 1346.94 582.21 L 1431.02 582.16 C 1468.88 582.15 1504.57 578.76 1533.53 608.52 C 1552.56 628.09 1557.71 648.18 1557.81 674.91 L 1557.69 1243.54 L 1557.74 1411.51 C 1557.75 1440.71 1558.68 1473.49 1556.22 1502.33 C 1553.49 1521.91 1543.17 1541.77 1529.65 1555.59 C 1499.28 1586.61 1464.16 1583.89 1423.98 1583.86 L 1353.50 1583.78 L 1093.50 1583.79 L 1046.60 1583.79 L 1046.73 1672.01 C 1046.75 1687.24 1047.58 1703.49 1045.75 1718.40 C 1043.43 1728.62 1034.91 1733.97 1025.26 1734.32 C 1014.58 1734.72 1003.20 1727.09 1002.18 1716.09 C 1000.92 1702.52 1001.51 1686.99 1001.51 1672.97 L 1001.76 1583.73 L 852.07 1583.84 L 852.06 1533.97 L 1001.72 1533.94 C 1000.31 1401.06 1001.61 1266.10 1001.62 1132.99 L 1001.77 631.71 L 852.07 631.85 L 852.04 582.26 L 1001.73 582.30 C 1001.11 535.75 1001.59 487.89 1001.82 441.23 C 1001.88 430.70 1008.09 425.53 1017.05 421.14 z"/>
<path transform="translate(0,0)" fill="transparent" d="M 1046.53 631.77 L 1338.15 631.81 L 1425.91 631.72 C 1438.25 631.71 1462.21 631.06 1473.62 632.33 C 1482.05 633.19 1490.03 636.54 1496.55 641.94 C 1505.05 648.92 1509.17 656.98 1509.58 667.91 C 1510.23 684.76 1509.98 702.15 1509.98 719.04 L 1509.96 811.52 L 1509.96 1101.53 L 1509.95 1361.49 L 1510.01 1442.74 C 1510.02 1468.53 1514.40 1499.49 1496.75 1519.98 C 1477.67 1538.52 1444.78 1534.03 1419.85 1534 L 1336.74 1533.95 L 1046.59 1533.98 L 1046.53 631.77 z"/>
<path transform="translate(0,0)" fill="rgb(22,21,21)" d="M 657.14 632.23 L 744.05 632.14 L 744.01 722.03 L 657.08 722.06 L 657.14 632.23 z"/>
<path transform="translate(0,0)" fill="rgb(22,21,21)" d="M 754.72 730.01 L 841.75 730.04 L 841.73 818.69 C 813.74 817.96 782.75 818.43 754.63 818.70 C 755.05 789.42 754.71 759.35 754.72 730.01 z"/>
<path transform="translate(0,0)" fill="rgb(22,21,21)" d="M 557.99 535.48 C 582.16 537.03 618.90 535.88 643.98 535.82 L 643.93 622.98 L 557.96 623.04 L 557.99 535.48 z"/>
<path transform="translate(0,0)" fill="rgb(22,21,21)" d="M 465.99 1399.15 L 546.17 1399.20 L 546.07 1482.67 C 519.38 1482.47 492.68 1482.47 465.98 1482.69 L 465.99 1399.15 z"/>
<path transform="translate(0,0)" fill="rgb(22,21,21)" d="M 578.30 824.06 L 658.05 824.04 L 658.04 904.40 C 632.08 903.86 604.34 904.14 578.36 904.46 C 578.04 877.84 578.30 850.72 578.30 824.06 z"/>
<path transform="translate(0,0)" fill="rgb(22,21,21)" d="M 627.09 1475.68 C 651.25 1476.35 677.72 1475.83 702.05 1475.80 L 702.15 1551.23 L 627.10 1551.29 L 627.09 1475.68 z"/>
<path transform="translate(0,0)" fill="rgb(22,21,21)" d="M 726.01 924.21 L 799.03 924.22 L 799.02 1000.03 L 725.93 1000.07 L 726.01 924.21 z"/>
<path transform="translate(0,0)" fill="rgb(22,21,21)" d="M 461.97 722.81 C 485.83 723.36 511.64 722.88 535.66 722.88 C 535.28 747.70 535.47 773.03 535.42 797.88 C 513.52 798.92 484.40 798.08 461.96 798.07 L 461.97 722.81 z"/>
<path transform="translate(0,0)" fill="rgb(22,21,21)" d="M 848.08 830.02 L 921.90 829.98 L 921.89 904.43 C 897.28 904.17 872.68 904.15 848.07 904.37 L 848.08 830.02 z"/>
<path transform="translate(0,0)" fill="rgb(22,21,21)" d="M 581.73 1022.12 L 649.92 1022.04 L 649.84 1091.99 C 627.64 1092.42 604.05 1092.04 581.74 1092.07 L 581.73 1022.12 z"/>
<path transform="translate(0,0)" fill="rgb(22,21,21)" d="M 804.10 1234.93 L 871.95 1234.93 L 871.91 1303.99 L 804.16 1304.01 L 804.10 1234.93 z"/>
<path transform="translate(0,0)" fill="rgb(22,21,21)" d="M 465.02 930.81 C 486.91 931.23 510.12 930.88 532.11 930.90 L 532.08 996.92 C 509.84 996.67 487.28 996.88 465.02 996.90 L 465.02 930.81 z"/>
<path transform="translate(0,0)" fill="rgb(22,21,21)" d="M 700.05 1343.89 L 766.02 1343.95 L 766.04 1410.51 C 744.44 1409.89 721.71 1410.26 700.02 1410.30 L 700.05 1343.89 z"/>
<path transform="translate(0,0)" fill="rgb(22,21,21)" d="M 472.29 1147.89 L 537.75 1147.86 C 537.45 1169.38 537.63 1191.24 537.62 1212.79 C 515.84 1212.45 494.06 1212.43 472.29 1212.73 L 472.29 1147.89 z"/>
<path transform="translate(0,0)" fill="rgb(22,21,21)" d="M 574.11 1272.99 L 634.93 1273.01 L 634.88 1334.40 C 614.99 1333.83 594.10 1334.18 574.13 1334.22 L 574.11 1272.99 z"/>
<path transform="translate(0,0)" fill="rgb(22,21,21)" d="M 676.04 1158.73 L 733.75 1158.70 C 733.47 1178.05 733.77 1198.09 733.80 1217.49 L 676.04 1217.58 L 676.04 1158.73 z"/>
<path transform="translate(0,0)" fill="rgb(22,21,21)" d="M 783.06 1066.01 L 839.04 1065.96 L 839.01 1121.96 L 783.12 1121.96 L 783.06 1066.01 z"/>
<path transform="translate(0,0)" fill="rgb(22,21,21)" d="M 830.10 1449.26 C 846.58 1449.76 864.50 1449.42 881.08 1449.41 L 881.02 1502.08 L 830.00 1502.05 C 829.93 1484.45 829.97 1466.86 830.10 1449.26 z"/>
<path transform="translate(0,0)" fill="rgb(22,21,21)" d="M 907.32 967.04 L 957.74 967.07 C 957.75 973.45 958.58 1014.91 956.64 1017.54 C 940.41 1017.18 923.65 1017.44 907.38 1017.51 C 907.66 1000.69 907.64 983.86 907.32 967.04 z"/>
<path transform="translate(0,0)" fill="rgb(22,21,21)" d="M 904.43 1323.03 L 953.99 1323.12 C 953.97 1338.61 954.65 1359.11 953.69 1374.06 L 904.58 1374.09 L 904.43 1323.03 z"/>
<path transform="translate(0,0)" fill="rgb(22,21,21)" d="M 904.06 1146 L 953.43 1145.93 L 953.52 1194.82 C 947.77 1195.80 911.95 1195.27 904.05 1195.27 L 904.06 1146 z"/>
<path transform="translate(0,0)" fill="rgb(22,21,21)" d="M 908.67 731.78 L 957.22 731.78 C 957.16 747.46 957.18 763.14 957.28 778.82 C 941.42 778.41 924.39 778.74 908.44 778.76 C 909.07 763.81 908.70 746.88 908.67 731.78 z"/>
</svg>